#!OML:ASF X:\für Bonn\!DataBase\2005_08_12_Daniel\c3d\Daniel.ASF
:FULLY-SPECIFIED
:DEGREES
247
root -0.147474 8.05002 -14.8049 329.614 27.6049 -0.34187
lowerback 76.6738 -6.18119 7.26227
upperback 10.6627 0.442655 -1.0197
thorax -8.45943 1.07622 -4.27757
lowerneck 0.674924 -6.41322 -2.11151
upperneck 15.3115 -9.2875 7.32818
head 4.92614 -4.1863 2.22142
rclavicle -2.22639e-014 3.18055e-014
rhumerus 90.7642 -68.3203 -193.446
rradius 11.1065
rwrist 125.01
rhand -22.5319 0.69077
rfingers 7.12502
rthumb 3.89512 -29.2534
lclavicle -2.22639e-014 3.18055e-014
lhumerus -9.72295 11.3434 92.2763
lradius 36.3456
lwrist -17.7743
lhand -12.3251 -8.08951
lfingers 7.12502
lthumb 13.7437 21.4366
rfemur 22.2329 -53.2256 -114.132
rtibia 148.775
rfoot -31.554 -286.901
rtoes 11.2798
lfemur -65.9981 46.7787 4.31298
ltibia 145.616
lfoot -35.5339 -57.3659
ltoes 11.0925
248
root -0.139656 8.18107 -14.8209 329.932 27.5363 -0.224099
lowerback 76.7208 -6.14536 7.1692
upperback 10.5839 0.398405 -1.048
thorax -8.55742 1.04789 -4.25722
lowerneck 0.781946 -6.39286 -2.13777
upperneck 15.124 -9.24664 7.31658
head 4.84889 -4.17733 2.22962
rclavicle -4.21423e-014 2.8625e-014
rhumerus 90.456 -68.2336 -193.056
rradius 11.3238
rwrist 122.416
rhand -21.1301 0.306697
rfingers 7.12502
rthumb 5.24869 -29.6083
lclavicle -4.21423e-014 2.8625e-014
lhumerus -9.7758 11.4354 92.3312
lradius 36.3466
lwrist -17.8518
lhand -12.2104 -8.10131
lfingers 7.12502
lthumb 13.8542 21.4173
rfemur 20.943 -54.4868 -110.531
rtibia 147.75
rfoot -29.7027 -288.314
rtoes 10.8434
lfemur -65.7841 44.2995 2.53225
ltibia 144.6
lfoot -34.7417 -55.5927
ltoes 10.8746
249
root -0.130748 8.31485 -14.8348 330.267 27.4699 -0.112152
lowerback 76.721 -6.12493 7.11107
upperback 10.5194 0.355903 -1.09557
thorax -8.64161 1.024 -4.27416
lowerneck 0.83333 -6.38261 -2.1523
upperneck 14.9874 -9.22724 7.33489
head 4.79866 -4.17363 2.24158
rclavicle -1.90833e-014 -1.03368e-014
rhumerus 90.0257 -68.1273 -192.514
rradius 11.4688
rwrist 120.019
rhand -19.807 -0.143966
rfingers 7.12502
rthumb 6.52611 -30.0234
lclavicle -1.90833e-014 -1.03368e-014
lhumerus -9.80868 11.4078 92.3517
lradius 36.339
lwrist -17.787
lhand -12.0314 -8.10119
lfingers 7.12502
lthumb 14.0268 21.4055
rfemur 19.3424 -55.6792 -106.669
rtibia 146.716
rfoot -28.3574 -289.757
rtoes 10.4158
lfemur -65.5282 41.8704 0.85188
ltibia 143.571
lfoot -34.0378 -53.8419
ltoes 10.486
250
root -0.121237 8.45152 -14.8473 330.61 27.3643 -0.00561861
lowerback 76.7006 -6.06836 7.02127
upperback 10.4577 0.324973 -1.12396
thorax -8.72615 1.00109 -4.26164
lowerneck 0.880301 -6.35343 -2.20089
upperneck 14.8829 -9.18195 7.34122
head 4.75866 -4.15866 2.25613
rclavicle -7.95139e-015 4.92986e-014
rhumerus 89.8149 -68.0581 -192.259
rradius 11.5893
rwrist 118.139
rhand -18.7951 -0.642573
rfingers 7.12502
rthumb 7.50297 -30.4895
lclavicle -7.95139e-015 4.92986e-014
lhumerus -9.89062 11.438 92.3773
lradius 36.3564
lwrist -17.6452
lhand -11.9347 -8.14612
lfingers 7.12502
lthumb 14.1199 21.3541
rfemur 17.1155 -56.8723 -102.152
rtibia 145.648
rfoot -26.8479 -291.275
rtoes 9.80907
lfemur -65.087 39.6234 -0.587842
ltibia 142.507
lfoot -33.4768 -52.2126
ltoes 10.3326
251
root -0.111434 8.58926 -14.8588 330.997 27.2845 0.0922685
lowerback 76.5554 -6.01698 6.94926
upperback 10.4386 0.289913 -1.14404
thorax -8.77304 0.977594 -4.24522
lowerneck 0.973428 -6.33135 -2.22371
upperneck 14.7218 -9.13844 7.31091
head 4.69097 -4.14773 2.25738
rclavicle 3.18055e-014 -9.38264e-014
rhumerus 89.6318 -68.0003 -192.012
rradius 11.6344
rwrist 116.613
rhand -17.9824 -1.08591
rfingers 7.12502
rthumb 8.28732 -30.9034
lclavicle 3.18055e-014 -9.38264e-014
lhumerus -10.0005 11.509 92.4126
lradius 36.4403
lwrist -17.5097
lhand -11.7878 -8.21509
lfingers 7.12502
lthumb 14.2615 21.2752
rfemur 14.6641 -57.9262 -97.4857
rtibia 144.562
rfoot -25.5159 -292.723
rtoes 9.4268
lfemur -64.7256 37.4134 -2.0121
ltibia 141.447
lfoot -32.9856 -50.6292
ltoes 10.1282
252
root -0.101531 8.72662 -14.8701 331.386 27.1797 0.190853
lowerback 76.3812 -5.94613 6.86206
upperback 10.435 0.259498 -1.16289
thorax -8.80538 0.956038 -4.22365
lowerneck 1.07526 -6.29681 -2.2722
upperneck 14.5683 -9.08217 7.31277
head 4.62604 -4.13017 2.27341
rclavicle -3.18055e-015 4.69132e-014
rhumerus 90.1817 -67.9056 -192.564
rradius 11.5943
rwrist 115.777
rhand -17.4077 -1.39948
rfingers 7.12502
rthumb 8.84188 -31.1942
lclavicle -3.18055e-015 4.69132e-014
lhumerus -10.112 11.5945 92.4407
lradius 36.5346
lwrist -17.3856
lhand -11.6879 -8.27923
lfingers 7.12502
lthumb 14.3578 21.2043
rfemur 11.528 -58.8871 -92.2051
rtibia 143.483
rfoot -24.0311 -294.217
rtoes 9.00187
lfemur -64.2853 35.356 -3.31257
ltibia 140.378
lfoot -32.6324 -49.0737
ltoes 9.85472
253
root -0.0915034 8.8644 -14.8805 331.774 27.0939 0.277986
lowerback 76.1728 -5.89065 6.80893
upperback 10.4225 0.235827 -1.18357
thorax -8.84914 0.937284 -4.22066
lowerneck 1.27072 -6.26616 -2.30224
upperneck 14.3852 -9.0287 7.31759
head 4.536 -4.11539 2.29082
rclavicle -1.90833e-014 1.59028e-015
rhumerus 91.4084 -67.8164 -193.806
rradius 11.4914
rwrist 115.45
rhand -17.0378 -1.52962
rfingers 7.12502
rthumb 9.19889 -31.309
lclavicle -1.90833e-014 1.59028e-015
lhumerus -10.2946 11.7217 92.4603
lradius 36.6461
lwrist -17.2984
lhand -11.5899 -8.36025
lfingers 7.12502
lthumb 14.4521 21.1165
rfemur 8.05941 -59.6196 -86.6486
rtibia 142.376
rfoot -22.4902 -295.657
rtoes 8.70911
lfemur -63.8456 33.3595 -4.53328
ltibia 139.31
lfoot -32.2633 -47.591
ltoes 9.55045
254
root -0.0805039 9.00186 -14.8906 332.178 26.9712 0.377028
lowerback 75.8992 -5.80949 6.73266
upperback 10.4506 0.21397 -1.19949
thorax -8.8528 0.920081 -4.2041
lowerneck 1.39037 -6.23171 -2.38481
upperneck 14.2617 -8.97285 7.31597
head 4.47876 -4.09901 2.31144
rclavicle -4.53229e-014 3.81667e-014
rhumerus 92.882 -67.6826 -195.348
rradius 11.3399
rwrist 115.571
rhand -16.8568 -1.5228
rfingers 7.12502
rthumb 9.37347 -31.2944
lclavicle -4.53229e-014 3.81667e-014
lhumerus -10.4125 11.9145 92.4909
lradius 36.7029
lwrist -17.228
lhand -11.5614 -8.44248
lfingers 7.12502
lthumb 14.4796 21.0323
rfemur 4.18004 -60.1517 -80.7646
rtibia 141.283
rfoot -21.2454 -297.151
rtoes 8.36858
lfemur -63.3491 31.518 -5.66713
ltibia 138.227
lfoot -31.9694 -46.1414
ltoes 9.4326
